<svg xmlns="http://www.w3.org/2000/svg" width="26.134" height="27.036" viewBox="0 0 26.134 27.036"><defs><style>.a{fill:#aaa;}</style></defs><path class="a" d="M27.126,5.653l-.009-.246H26.86L21,0H7.132L1.26,5.42,1,5.43V27.036l26.134-.01V5.66ZM7.484.9H20.65l4.882,4.507-7.418,0-.074.36A4.054,4.054,0,0,1,10.1,5.767l-.074-.36-7.424,0ZM26.233,26.125,1.9,26.134V20.3l7.4,0a4.958,4.958,0,0,0,9.533-.009l7.4-.005ZM14.067,22.98a4.07,4.07,0,0,1-3.821-2.707l7.644,0A4.068,4.068,0,0,1,14.067,22.98Zm12.166-3.614L1.9,19.376V13.107l7.408,0a4.956,4.956,0,0,0,9.517,0l7.407,0ZM10.26,13.1l7.616,0a4.051,4.051,0,0,1-7.616,0Zm7.854-.932-.006.028-8.082,0,0-.023L1.9,12.186V6.314l7.4-.005a4.955,4.955,0,0,0,9.534.005l7.4-.005v5.858Z" transform="translate(-1)"/></svg>
