<?xml version="1.0" encoding="utf-8"?>
<!-- Generator: Adobe Illustrator 16.0.0, SVG Export Plug-In . SVG Version: 6.00 Build 0)  -->
<!DOCTYPE svg PUBLIC "-//W3C//DTD SVG 1.1//EN" "http://www.w3.org/Graphics/SVG/1.1/DTD/svg11.dtd">
<svg version="1.1" id="Layer_1" xmlns="http://www.w3.org/2000/svg" xmlns:xlink="http://www.w3.org/1999/xlink" x="0px" y="0px"
	 width="25px" height="20px" viewBox="0 0 25 20" enable-background="new 0 0 25 20" xml:space="preserve">
<g>
	<g transform="translate(-123 -317)">
		<g>
			<path id="wel2a" fill="#403F3F" d="M135.5,330.3c4.1,0,7.5,1.7,7.5,3.8v1.9h-15v-1.9C128,332,131.4,330.3,135.5,330.3
				 M139.4,324.6c0,2.101-1.7,3.801-3.801,3.801c-2.1,0-3.8-1.7-3.8-3.801 M135,318h1c0.3,0,0.4,0.2,0.4,0.5v2.8h1v-2.4
				c0,0,2.1,0.9,2.1,3.6c0,0,0.7,0.1,0.7,1.2h-9.4c0-1.101,0.7-1.2,0.7-1.2c0-2.8,2.1-3.6,2.1-3.6v2.4h1v-2.8
				C134.6,318.2,134.8,318,135,318"/>
		</g>
	</g>
</g>
</svg>
