<?xml version="1.0" encoding="utf-8"?>
<!-- Generator: Adobe Illustrator 16.0.0, SVG Export Plug-In . SVG Version: 6.00 Build 0)  -->
<!DOCTYPE svg PUBLIC "-//W3C//DTD SVG 1.1//EN" "http://www.w3.org/Graphics/SVG/1.1/DTD/svg11.dtd">
<svg version="1.1" id="Layer_1" xmlns="http://www.w3.org/2000/svg" xmlns:xlink="http://www.w3.org/1999/xlink" x="0px" y="0px"
	 width="25px" height="20px" viewBox="0 0 25 20" enable-background="new 0 0 25 20" xml:space="preserve">
<g>
	<g transform="translate(-102 -253)">
		<g>
			<path id="l33ga" fill="#FFFFFF" d="M121.5,266.5h-2v-2h2V266.5z M121.5,270.5h-2v-2h2V270.5z M115.5,258.5h-2v-2h2V258.5z
				 M115.5,262.5h-2v-2h2V262.5z M115.5,266.5h-2v-2h2V266.5z M115.5,270.5h-2v-2h2V270.5z M109.5,262.5h-2v-2h2V262.5z
				 M109.5,266.5h-2v-2h2V266.5z M109.5,270.5h-2v-2h2V270.5z M117.5,262.5v-6l-3-3l-3,3v2h-6v14h18v-10H117.5z"/>
		</g>
	</g>
</g>
</svg>
