<svg xmlns="http://www.w3.org/2000/svg" width="16.486" height="15.112" viewBox="0 0 16.486 15.112"><defs><style>.a{fill:#fff;}</style></defs><g transform="translate(0 -21.333)"><g transform="translate(0 21.333)"><path class="a" d="M13.228,21.333a3.236,3.236,0,0,0-2.3.954L3.417,29.794a2.286,2.286,0,1,0,3.233,3.233l6.987-6.987a.343.343,0,0,0-.486-.486L6.165,32.542A1.6,1.6,0,1,1,3.9,30.28l7.507-7.507a2.571,2.571,0,0,1,3.636,3.636L6.734,34.721a3.542,3.542,0,0,1-5.01-5.01l7.792-7.792a.343.343,0,0,0-.486-.486L1.239,29.226A4.229,4.229,0,0,0,7.22,35.206l8.312-8.312a3.258,3.258,0,0,0-2.3-5.561Z" transform="translate(0 -21.333)"/></g></g></svg>