<svg xmlns="http://www.w3.org/2000/svg" width="18.31" height="18.31" viewBox="0 0 18.31 18.31"><defs><style>.a{fill:#fff;}.b{fill:none;}</style></defs><path class="a" d="M7.577,8.866H6.052v1.526H7.577Zm3.052,0H9.1v1.526h1.526Zm3.052,0H12.155v1.526h1.526Zm1.526-5.34h-.763V2H12.918V3.526h-6.1V2H5.289V3.526H4.526A1.519,1.519,0,0,0,3.008,5.052L3,15.732a1.525,1.525,0,0,0,1.526,1.526H15.206a1.53,1.53,0,0,0,1.526-1.526V5.052A1.53,1.53,0,0,0,15.206,3.526Zm0,12.206H4.526V7.34H15.206Z" transform="translate(-0.711 -0.474)"/><path class="b" d="M0,0H18.31V18.31H0Z"/></svg>