<svg xmlns="http://www.w3.org/2000/svg" width="20.931" height="20.932" viewBox="0 0 20.931 20.932"><defs><style>.a{fill:#403f3f;}</style></defs><g transform="translate(-0.5 0)"><path class="a" d="M5.925,6.3,8.8,9.172l.867-.867L6.792,5.433v-2.3L2.463.008.5,1.971,3.621,6.3Zm0,0" transform="translate(0 -0.007)"/><path class="a" d="M15.151,1.077a3.773,3.773,0,0,0-.735,4.2L5.781,13.918a3.761,3.761,0,0,0-4.2.734A3.688,3.688,0,0,0,.858,18.84l2.454-2.453,1.734,1.734L2.593,20.574a3.68,3.68,0,0,0,4.188-.719,3.77,3.77,0,0,0,.735-4.2l8.635-8.637a3.769,3.769,0,0,0,4.2-.735,3.685,3.685,0,0,0,.719-4.188L18.62,4.546,16.886,2.812,19.34.358A3.686,3.686,0,0,0,15.151,1.077Zm0,0" transform="translate(-0.001 0)"/><path class="a" d="M266.984,269.1l2.6-2.6.871.871-2.6,2.6Zm0,0" transform="translate(-255.59 -255.6)"/><path class="a" d="M315.281,317.4l-5.695-5.695,2.6-2.6,5.695,5.695Zm0,0" transform="translate(-296.449 -296.464)"/></g></svg>